<svg xmlns="http://www.w3.org/2000/svg" width="25.348" height="25.418" viewBox="0 0 25.348 25.418">
  <g id="_0" data-name="0" transform="translate(-0.477 -0.814)">
    <path id="Path_109" data-name="Path 109" d="M13.156,5.373a1.018,1.018,0,0,0,1.008-1.02V1.834a1.014,1.014,0,1,0-2.027,0v2.52A1.02,1.02,0,0,0,13.156,5.373Zm5.742,2.4a1.029,1.029,0,0,0,1.441,0l1.793-1.793a1.04,1.04,0,0,0,0-1.441,1.026,1.026,0,0,0-1.43,0l-1.8,1.8A1.026,1.026,0,0,0,18.9,7.775Zm2.379,5.754a1.026,1.026,0,0,0,1.02,1.008h2.52a1.014,1.014,0,0,0,0-2.027H22.3A1.036,1.036,0,0,0,21.277,13.529ZM18.9,19.283a1.026,1.026,0,0,0,0,1.43l1.8,1.816a1.049,1.049,0,0,0,1.43-.012,1.026,1.026,0,0,0,0-1.43l-1.8-1.8A1.049,1.049,0,0,0,18.9,19.283Zm-5.742,2.4a1.018,1.018,0,0,0-1.019,1.008v2.531a1.014,1.014,0,0,0,2.027,0V22.693A1.015,1.015,0,0,0,13.156,21.686ZM7.4,19.283a1.064,1.064,0,0,0-1.441,0L4.168,21.076a1.037,1.037,0,0,0-.012,1.43,1.064,1.064,0,0,0,1.441.012l1.793-1.8A1.037,1.037,0,0,0,7.4,19.283ZM5.023,13.529A1.036,1.036,0,0,0,4,12.51H1.484a1.014,1.014,0,0,0,0,2.027H4A1.026,1.026,0,0,0,5.023,13.529ZM7.391,7.775A1.037,1.037,0,0,0,7.4,6.346l-1.793-1.8a1.015,1.015,0,0,0-1.441,1.43l1.793,1.8A1.026,1.026,0,0,0,7.391,7.775Z" fill="#ffe8b4"/>
    <path id="Path_110" data-name="Path 110" d="M13.145,19.506A5.982,5.982,0,1,0,7.18,13.529,6.015,6.015,0,0,0,13.145,19.506Z" fill="#ffc72b"/>
  </g>
</svg>
