<svg xmlns="http://www.w3.org/2000/svg" width="23.121" height="23.25" viewBox="0 0 23.121 23.25">
  <g id="_0d" data-name="0d" transform="translate(-0.02 -0.428)">
    <path id="Path_119" data-name="Path 119" d="M18.148,16.131c-6.34,0-10.394-3.973-10.394-10.324a12.6,12.6,0,0,1,.738-4.16A1.5,1.5,0,0,0,8.621,1.1.665.665,0,0,0,7.93.428a2.237,2.237,0,0,0-.668.129A12.209,12.209,0,0,0,.02,11.865c0,6.891,5.25,11.813,12.117,11.813,5.051,0,9.422-3.059,10.875-6.879a2,2,0,0,0,.129-.656.723.723,0,0,0-.691-.726,1.607,1.607,0,0,0-.5.105A13.112,13.112,0,0,1,18.148,16.131Z" fill="#c8dbff"/>
  </g>
</svg>
