<svg xmlns="http://www.w3.org/2000/svg" width="26.754" height="26.933" viewBox="0 0 26.754 26.933">
  <g id="_10" data-name="10" transform="translate(-1.332 -0.764)">
    <path id="Path_77" data-name="Path 77" d="M18.71,27.341l3.469-6a.666.666,0,0,0-.258-.949.674.674,0,0,0-.949.258l-3.445,5.977a.693.693,0,0,0,.234.973A.683.683,0,0,0,18.71,27.341Z" fill="#8bc1ff"/>
    <path id="Path_78" data-name="Path 78" d="M14.082,27.33l3.434-5.965a.7.7,0,1,0-1.219-.7L12.851,26.65a.679.679,0,0,0,.258.949A.7.7,0,0,0,14.082,27.33Z" fill="#8bc1ff"/>
    <path id="Path_79" data-name="Path 79" d="M9.418,27.33l3.434-5.965a.7.7,0,1,0-1.219-.7L8.187,26.65a.679.679,0,0,0,.258.949A.7.7,0,0,0,9.418,27.33Z" fill="#8bc1ff"/>
    <path id="Path_80" data-name="Path 80" d="M4.743,27.33l3.445-5.965a.684.684,0,0,0-.258-.973.664.664,0,0,0-.961.269L3.513,26.65a.688.688,0,0,0,.258.949A.7.7,0,0,0,4.743,27.33Z" fill="#8bc1ff"/>
    <path id="Path_81" data-name="Path 81" d="M6.84,18.518H21.383a6.526,6.526,0,0,0,6.7-6.527c0-3.738-3.047-6.469-7.02-6.469A8.323,8.323,0,0,0,13.5.764a8.536,8.536,0,0,0-8.426,7.8A5.072,5.072,0,0,0,1.332,13.5C1.332,16.279,3.348,18.518,6.84,18.518Z" fill="#dcf1ff"/>
  </g>
</svg>
