<svg xmlns="http://www.w3.org/2000/svg" width="33.959" height="32.586" viewBox="0 0 33.959 32.586">
  <g id="_13" data-name="13" transform="translate(-2.359 -0.75)">
    <path id="Path_107" data-name="Path 107" d="M30.975,18.34l1.816,1.8a.965.965,0,0,1-1.359,1.371l-1.828-1.8a.976.976,0,0,1,0-1.371A1,1,0,0,1,30.975,18.34Zm-1-5.426a5.829,5.829,0,0,1-2.8,4.953,7.133,7.133,0,0,0-6.658-6.336,9.27,9.27,0,0,0-1.285-1.611,5.779,5.779,0,0,1,10.742,2.994Zm6.34,0a.968.968,0,0,1-.961.973H32.814a.973.973,0,1,1,0-1.945h2.543A.975.975,0,0,1,36.318,12.914Zm-3.527-8.59a.99.99,0,0,1,0,1.383L30.986,7.5a.98.98,0,0,1-1.383,0,.962.962,0,0,1,0-1.359l1.828-1.816A.951.951,0,0,1,32.791,4.324Zm-15.82,0,1.8,1.816A.97.97,0,0,1,17.393,7.5L15.6,5.7a.976.976,0,0,1,.012-1.371A.962.962,0,0,1,16.971,4.324Zm8.191-2.6V4.266a.973.973,0,0,1-1.945,0V1.723a.973.973,0,1,1,1.945,0Z" fill="#ffdf94"/>
    <path id="Path_108" data-name="Path 108" d="M7.246,24.352h12.68a5.782,5.782,0,0,0,5.93-5.789c0-3.234-2.637-5.684-6.141-5.707a7.412,7.412,0,0,0-6.668-4.137,7.508,7.508,0,0,0-7.418,6.82A4.47,4.47,0,0,0,2.359,19.9C2.359,22.5,4.316,24.352,7.246,24.352Z" fill="#dcf1ff"/>
    <path id="Path_124" data-name="Path 124" d="M7.9,25.512a.375.375,0,0,0,.352-.41l-.07-1.125.926.633A.409.409,0,0,0,9.66,24.5a.392.392,0,0,0-.187-.551l-1-.492,1.008-.5a.4.4,0,0,0,.188-.539.41.41,0,0,0-.562-.105l-.926.645.082-1.125a.37.37,0,0,0-.363-.41.366.366,0,0,0-.375.41l.07,1.125-.937-.645a.375.375,0,1,0-.375.645l1.008.5-1.008.492a.393.393,0,0,0-.176.551.407.407,0,0,0,.551.117l.938-.633L7.539,25.1A.363.363,0,0,0,7.9,25.512Z" transform="translate(-0.583 4.824)" fill="#6dd4e9"/>
    <path id="Path_125" data-name="Path 125" d="M7.9,25.512a.375.375,0,0,0,.352-.41l-.07-1.125.926.633A.409.409,0,0,0,9.66,24.5a.392.392,0,0,0-.187-.551l-1-.492,1.008-.5a.4.4,0,0,0,.188-.539.41.41,0,0,0-.562-.105l-.926.645.082-1.125a.37.37,0,0,0-.363-.41.366.366,0,0,0-.375.41l.07,1.125-.937-.645a.375.375,0,1,0-.375.645l1.008.5-1.008.492a.393.393,0,0,0-.176.551.407.407,0,0,0,.551.117l.938-.633L7.539,25.1A.363.363,0,0,0,7.9,25.512Z" transform="translate(8.745 4.824)" fill="#6dd4e9"/>
    <path id="Path_126" data-name="Path 126" d="M7.9,25.512a.375.375,0,0,0,.352-.41l-.07-1.125.926.633A.409.409,0,0,0,9.66,24.5a.392.392,0,0,0-.187-.551l-1-.492,1.008-.5a.4.4,0,0,0,.188-.539.41.41,0,0,0-.562-.105l-.926.645.082-1.125a.37.37,0,0,0-.363-.41.366.366,0,0,0-.375.41l.07,1.125-.937-.645a.375.375,0,1,0-.375.645l1.008.5-1.008.492a.393.393,0,0,0-.176.551.407.407,0,0,0,.551.117l.938-.633L7.539,25.1A.363.363,0,0,0,7.9,25.512Z" transform="translate(3.083 7.824)" fill="#6dd4e9"/>
    <path id="Path_127" data-name="Path 127" d="M7.9,25.512a.375.375,0,0,0,.352-.41l-.07-1.125.926.633A.409.409,0,0,0,9.66,24.5a.392.392,0,0,0-.187-.551l-1-.492,1.008-.5a.4.4,0,0,0,.188-.539.41.41,0,0,0-.562-.105l-.926.645.082-1.125a.37.37,0,0,0-.363-.41.366.366,0,0,0-.375.41l.07,1.125-.937-.645a.375.375,0,1,0-.375.645l1.008.5-1.008.492a.393.393,0,0,0-.176.551.407.407,0,0,0,.551.117l.938-.633L7.539,25.1A.363.363,0,0,0,7.9,25.512Z" transform="translate(12.75 7.824)" fill="#6dd4e9"/>
  </g>
</svg>
