<svg xmlns="http://www.w3.org/2000/svg" width="30.634" height="28.783" viewBox="0 0 30.634 28.783">
  <g id="_13d" data-name="13d" transform="translate(-2.684 -1.174)">
    <path id="Path_117" data-name="Path 117" d="M25.864,1.76c0,.621-.832,1.758-.832,3.3,0,2.7,1.734,4.348,4.641,4.348,1.652,0,2.5-.75,3.07-.75.375,0,.574.34.574.8,0,1.754-1.875,4.925-5.757,5.455a7.159,7.159,0,0,0-6.7-6.791,9.356,9.356,0,0,0-1.177-1.5c.654-3.19,3.368-5.372,5.466-5.453C25.606,1.163,25.864,1.4,25.864,1.76Z" fill="#c8dbff"/>
    <path id="Path_118" data-name="Path 118" d="M7.535,20.98H20.226a5.745,5.745,0,0,0,5.895-5.754c0-3.234-2.625-5.672-6.129-5.7a7.383,7.383,0,0,0-6.644-4.137A7.484,7.484,0,0,0,5.953,12.2a4.453,4.453,0,0,0-3.27,4.348C2.684,19.176,4.664,20.98,7.535,20.98Z" fill="#dcf1ff"/>
    <path id="Path_128" data-name="Path 128" d="M7.9,25.512a.375.375,0,0,0,.352-.41l-.07-1.125.926.633A.409.409,0,0,0,9.66,24.5a.392.392,0,0,0-.187-.551l-1-.492,1.008-.5a.4.4,0,0,0,.188-.539.41.41,0,0,0-.562-.105l-.926.645.082-1.125a.37.37,0,0,0-.363-.41.366.366,0,0,0-.375.41l.07,1.125-.937-.645a.375.375,0,1,0-.375.645l1.008.5-1.008.492a.393.393,0,0,0-.176.551.407.407,0,0,0,.551.117l.938-.633L7.539,25.1A.363.363,0,0,0,7.9,25.512Z" transform="translate(-1.247 1.445)" fill="#6dd4e9"/>
    <path id="Path_129" data-name="Path 129" d="M7.9,25.512a.375.375,0,0,0,.352-.41l-.07-1.125.926.633A.409.409,0,0,0,9.66,24.5a.392.392,0,0,0-.187-.551l-1-.492,1.008-.5a.4.4,0,0,0,.188-.539.41.41,0,0,0-.562-.105l-.926.645.082-1.125a.37.37,0,0,0-.363-.41.366.366,0,0,0-.375.41l.07,1.125-.937-.645a.375.375,0,1,0-.375.645l1.008.5-1.008.492a.393.393,0,0,0-.176.551.407.407,0,0,0,.551.117l.938-.633L7.539,25.1A.363.363,0,0,0,7.9,25.512Z" transform="translate(8.081 1.445)" fill="#6dd4e9"/>
    <path id="Path_130" data-name="Path 130" d="M7.9,25.512a.375.375,0,0,0,.352-.41l-.07-1.125.926.633A.409.409,0,0,0,9.66,24.5a.392.392,0,0,0-.187-.551l-1-.492,1.008-.5a.4.4,0,0,0,.188-.539.41.41,0,0,0-.562-.105l-.926.645.082-1.125a.37.37,0,0,0-.363-.41.366.366,0,0,0-.375.41l.07,1.125-.937-.645a.375.375,0,1,0-.375.645l1.008.5-1.008.492a.393.393,0,0,0-.176.551.407.407,0,0,0,.551.117l.938-.633L7.539,25.1A.363.363,0,0,0,7.9,25.512Z" transform="translate(2.42 4.445)" fill="#6dd4e9"/>
    <path id="Path_131" data-name="Path 131" d="M7.9,25.512a.375.375,0,0,0,.352-.41l-.07-1.125.926.633A.409.409,0,0,0,9.66,24.5a.392.392,0,0,0-.187-.551l-1-.492,1.008-.5a.4.4,0,0,0,.188-.539.41.41,0,0,0-.562-.105l-.926.645.082-1.125a.37.37,0,0,0-.363-.41.366.366,0,0,0-.375.41l.07,1.125-.937-.645a.375.375,0,1,0-.375.645l1.008.5-1.008.492a.393.393,0,0,0-.176.551.407.407,0,0,0,.551.117l.938-.633L7.539,25.1A.363.363,0,0,0,7.9,25.512Z" transform="translate(12.086 4.445)" fill="#6dd4e9"/>
  </g>
</svg>
