<svg xmlns="http://www.w3.org/2000/svg" width="26.754" height="28.008" viewBox="0 0 26.754 28.008">
  <g id="_16" data-name="16" transform="translate(-1.727 -1.91)">
    <path id="Path_94" data-name="Path 94" d="M18.344,29.918A.386.386,0,0,0,18.7,29.5l-.082-1.113.938.633A.424.424,0,0,0,20.1,28.9a.392.392,0,0,0-.188-.551l-1.008-.48,1.02-.5a.407.407,0,0,0,.188-.539.424.424,0,0,0-.562-.117l-.937.656.094-1.137a.37.37,0,0,0-.363-.41.366.366,0,0,0-.375.41l.07,1.137-.949-.656a.374.374,0,0,0-.527.117.381.381,0,0,0,.164.539l1.008.5-1.008.492a.381.381,0,0,0-.176.539.376.376,0,0,0,.539.117l.949-.633L17.981,29.5A.373.373,0,0,0,18.344,29.918Z" fill="#6dd4e9"/>
    <path id="Path_95" data-name="Path 95" d="M11.852,29.918A.386.386,0,0,0,12.2,29.5l-.07-1.113.926.633a.424.424,0,0,0,.551-.117.392.392,0,0,0-.187-.551l-1.008-.48,1.02-.5a.407.407,0,0,0,.188-.539.424.424,0,0,0-.562-.117l-.926.656.082-1.137a.37.37,0,0,0-.363-.41.366.366,0,0,0-.375.41l.07,1.137-.949-.656a.374.374,0,0,0-.527.117.381.381,0,0,0,.164.539l1.008.5-1.008.492a.381.381,0,0,0-.176.539.376.376,0,0,0,.539.117l.949-.633L11.488,29.5A.373.373,0,0,0,11.852,29.918Z" fill="#6dd4e9"/>
    <path id="Path_96" data-name="Path 96" d="M5.359,29.918a.386.386,0,0,0,.352-.422l-.07-1.113.926.633a.422.422,0,0,0,.551-.117.391.391,0,0,0-.187-.551l-1-.48,1.008-.5a.407.407,0,0,0,.188-.539.422.422,0,0,0-.562-.117l-.926.656.082-1.137a.37.37,0,0,0-.363-.41.366.366,0,0,0-.375.41l.07,1.137-.937-.656a.385.385,0,0,0-.539.117.381.381,0,0,0,.164.539l1.008.5-1.008.492a.381.381,0,0,0-.176.539.387.387,0,0,0,.551.117l.937-.633L5,29.5A.373.373,0,0,0,5.359,29.918Z" fill="#6dd4e9"/>
    <path id="Path_97" data-name="Path 97" d="M20.887,25.512a.375.375,0,0,0,.352-.41l-.082-1.125.938.633a.409.409,0,0,0,.551-.105.392.392,0,0,0-.187-.551l-1.008-.492,1.019-.5a.4.4,0,0,0,.188-.539.41.41,0,0,0-.562-.105l-.937.645.094-1.125a.37.37,0,0,0-.363-.41.366.366,0,0,0-.375.41l.07,1.125-.949-.645a.362.362,0,0,0-.527.105.376.376,0,0,0,.164.539l1.008.5-1.008.492a.382.382,0,1,0,.363.668l.949-.633L20.524,25.1A.363.363,0,0,0,20.887,25.512Z" fill="#6dd4e9"/>
    <path id="Path_98" data-name="Path 98" d="M14.395,25.512a.375.375,0,0,0,.352-.41l-.07-1.125.926.633a.409.409,0,0,0,.551-.105.392.392,0,0,0-.187-.551l-1.008-.492,1.02-.5a.4.4,0,0,0,.187-.539.41.41,0,0,0-.562-.105l-.926.645.082-1.125a.37.37,0,0,0-.363-.41.366.366,0,0,0-.375.41l.07,1.125-.949-.645a.362.362,0,0,0-.527.105.376.376,0,0,0,.164.539l1.008.5-1.008.492a.382.382,0,1,0,.363.668l.949-.633L14.031,25.1A.363.363,0,0,0,14.395,25.512Z" fill="#6dd4e9"/>
    <path id="Path_99" data-name="Path 99" d="M7.9,25.512a.375.375,0,0,0,.352-.41l-.07-1.125.926.633A.409.409,0,0,0,9.66,24.5a.392.392,0,0,0-.187-.551l-1-.492,1.008-.5a.4.4,0,0,0,.188-.539.41.41,0,0,0-.562-.105l-.926.645.082-1.125a.37.37,0,0,0-.363-.41.366.366,0,0,0-.375.41l.07,1.125-.937-.645a.375.375,0,1,0-.375.645l1.008.5-1.008.492a.393.393,0,0,0-.176.551.407.407,0,0,0,.551.117l.938-.633L7.539,25.1A.363.363,0,0,0,7.9,25.512Z" fill="#6dd4e9"/>
    <path id="Path_100" data-name="Path 100" d="M7.234,19.664H21.777a6.526,6.526,0,0,0,6.7-6.527c0-3.738-3.047-6.469-7.02-6.469a8.323,8.323,0,0,0-7.57-4.758,8.536,8.536,0,0,0-8.426,7.8,5.072,5.072,0,0,0-3.738,4.934C1.727,17.426,3.742,19.664,7.234,19.664Z" fill="#dcf1ff"/>
  </g>
</svg>
