<svg xmlns="http://www.w3.org/2000/svg" width="30.645" height="19.816" viewBox="0 0 30.645 19.816">
  <g id="_1d" data-name="1d" transform="translate(-1.578 -1.5)">
    <path id="Path_120" data-name="Path 120" d="M24.758,2.1c0,.621-.82,1.746-.82,3.3,0,2.684,1.723,4.348,4.629,4.348,1.652,0,2.508-.75,3.082-.75.375,0,.574.328.574.785,0,1.765-1.875,4.936-5.756,5.467a7.166,7.166,0,0,0-6.7-6.791,9.318,9.318,0,0,0-1.176-1.5c.655-3.19,3.366-5.38,5.453-5.461C24.512,1.489,24.758,1.735,24.758,2.1Z" fill="#c8dbff"/>
    <path id="Path_121" data-name="Path 121" d="M6.441,21.316h12.68a5.757,5.757,0,0,0,5.906-5.766c0-3.223-2.625-5.66-6.129-5.684a7.387,7.387,0,0,0-6.644-4.148,7.5,7.5,0,0,0-7.406,6.82,4.453,4.453,0,0,0-3.27,4.348C1.578,19.512,3.559,21.316,6.441,21.316Z" fill="#dcf1ff"/>
  </g>
</svg>
