<svg xmlns="http://www.w3.org/2000/svg" width="26.09" height="26.09" viewBox="0 0 26.09 26.09">
  <g id="_20" data-name="20" transform="translate(0 0)">
    <path id="Path_65" data-name="Path 65" d="M25.95,7.248,23.388,9.315a.348.348,0,0,1-.559-.3V8.577H1.631a1.631,1.631,0,0,1,0-3.261h21.2V4.877a.348.348,0,0,1,.559-.3L25.95,6.644a.395.395,0,0,1,0,.6Zm0,6.523-2.562,2.068a.348.348,0,0,1-.559-.3V15.1H1.631a1.631,1.631,0,0,1,0-3.261h21.2V11.4a.348.348,0,0,1,.559-.3l2.562,2.068a.395.395,0,0,1,0,.6Z" transform="translate(0 2.838)" fill="#ffe8b4"/>
    <path id="Path_66" data-name="Path 66" d="M17.64,5.13a1.986,1.986,0,0,1-2.472-.254,7.433,7.433,0,0,0-1.53-1.239,4.845,4.845,0,0,0-2.544-.647,3.729,3.729,0,0,0-2.43.815A2.632,2.632,0,0,0,7.7,5.911a3.071,3.071,0,0,0,.925,2.208l.033.034H4.781a5.737,5.737,0,0,1-.473-2.242A5.36,5.36,0,0,1,6.237,1.732,7.364,7.364,0,0,1,11.287,0,7.8,7.8,0,0,1,15.45,1.088,11.812,11.812,0,0,1,17.929,3.11a1.306,1.306,0,0,1-.289,2.02Zm-10,6.285h5.489a22.6,22.6,0,0,1,4.1,3.261H12.287q-.817-.611-1.848-1.291-1.424-.947-2.8-1.97Zm7.768,6.523A3.688,3.688,0,0,1,15.76,19.5a3.271,3.271,0,0,1-1.427,2.616A5.383,5.383,0,0,1,10.9,23.237q-2.593,0-4.761-2.834a1.916,1.916,0,0,0-2.332-.535,1.273,1.273,0,0,0-.585,1.882,9.465,9.465,0,0,0,8.065,4.341,8.429,8.429,0,0,0,5.59-2.006,6.092,6.092,0,0,0,2.43-4.789,5.6,5.6,0,0,0-.166-1.358Z" transform="translate(1.892 0)" fill="#ffbf77"/>
  </g>
</svg>
