<svg xmlns="http://www.w3.org/2000/svg" width="26.754" height="26.691" viewBox="0 0 26.754 26.691">
  <g id="_26" data-name="26" transform="translate(-1.727 -1.91)">
    <path id="Path_97" data-name="Path 97" d="M20.887,25.512a.375.375,0,0,0,.352-.41l-.082-1.125.938.633a.409.409,0,0,0,.551-.105.392.392,0,0,0-.187-.551l-1.008-.492,1.019-.5a.4.4,0,0,0,.188-.539.41.41,0,0,0-.562-.105l-.937.645.094-1.125a.37.37,0,0,0-.363-.41.366.366,0,0,0-.375.41l.07,1.125-.949-.645a.362.362,0,0,0-.527.105.376.376,0,0,0,.164.539l1.008.5-1.008.492a.382.382,0,1,0,.363.668l.949-.633L20.524,25.1A.363.363,0,0,0,20.887,25.512Z" transform="translate(1.713)" fill="#6dd4e9"/>
    <path id="Path_99" data-name="Path 99" d="M7.9,25.512a.375.375,0,0,0,.352-.41l-.07-1.125.926.633A.409.409,0,0,0,9.66,24.5a.392.392,0,0,0-.187-.551l-1-.492,1.008-.5a.4.4,0,0,0,.188-.539.41.41,0,0,0-.562-.105l-.926.645.082-1.125a.37.37,0,0,0-.363-.41.366.366,0,0,0-.375.41l.07,1.125-.937-.645a.375.375,0,1,0-.375.645l1.008.5-1.008.492a.393.393,0,0,0-.176.551.407.407,0,0,0,.551.117l.938-.633L7.539,25.1A.363.363,0,0,0,7.9,25.512Z" transform="translate(4)" fill="#6dd4e9"/>
    <path id="Path_100" data-name="Path 100" d="M7.234,19.664H21.777a6.526,6.526,0,0,0,6.7-6.527c0-3.738-3.047-6.469-7.02-6.469a8.323,8.323,0,0,0-7.57-4.758,8.536,8.536,0,0,0-8.426,7.8,5.072,5.072,0,0,0-3.738,4.934C1.727,17.426,3.742,19.664,7.234,19.664Z" fill="#dcf1ff"/>
    <path id="Path_132" data-name="Path 132" d="M7.9,25.512a.375.375,0,0,0,.352-.41l-.07-1.125.926.633A.409.409,0,0,0,9.66,24.5a.392.392,0,0,0-.187-.551l-1-.492,1.008-.5a.4.4,0,0,0,.188-.539.41.41,0,0,0-.562-.105l-.926.645.082-1.125a.37.37,0,0,0-.363-.41.366.366,0,0,0-.375.41l.07,1.125-.937-.645a.375.375,0,1,0-.375.645l1.008.5-1.008.492a.393.393,0,0,0-.176.551.407.407,0,0,0,.551.117l.938-.633L7.539,25.1A.363.363,0,0,0,7.9,25.512Z" transform="translate(-1.652 3.09)" fill="#6dd4e9"/>
    <path id="Path_133" data-name="Path 133" d="M20.887,25.512a.375.375,0,0,0,.352-.41l-.082-1.125.938.633a.409.409,0,0,0,.551-.105.392.392,0,0,0-.187-.551l-1.008-.492,1.019-.5a.4.4,0,0,0,.188-.539.41.41,0,0,0-.562-.105l-.937.645.094-1.125a.37.37,0,0,0-.363-.41.366.366,0,0,0-.375.41l.07,1.125-.949-.645a.362.362,0,0,0-.527.105.376.376,0,0,0,.164.539l1.008.5-1.008.492a.382.382,0,1,0,.363.668l.949-.633L20.524,25.1A.363.363,0,0,0,20.887,25.512Z" transform="translate(-3.332 3.09)" fill="#6dd4e9"/>
  </g>
</svg>
