<svg xmlns="http://www.w3.org/2000/svg" width="33.959" height="32.877" viewBox="0 0 33.959 32.877">
  <g id="_3" data-name="3" transform="translate(-2.359 -0.75)">
    <path id="Path_103" data-name="Path 103" d="M21.416,29.636a.688.688,0,0,1,.258.973l-1.535,2.648a.708.708,0,0,1-.961.27.684.684,0,0,1-.27-.961l1.535-2.66A.688.688,0,0,1,21.416,29.636Z" fill="#8bc1ff"/>
    <path id="Path_104" data-name="Path 104" d="M17.747,26.331a.7.7,0,0,1,.258.984l-1.524,2.637a.7.7,0,0,1-.973.27.667.667,0,0,1-.258-.949L16.786,26.6A.691.691,0,0,1,17.747,26.331Z" fill="#8bc1ff"/>
    <path id="Path_105" data-name="Path 105" d="M12.1,29.647a.694.694,0,0,1,.246.973l-1.523,2.648a.722.722,0,0,1-.973.27.69.69,0,0,1-.258-.961l1.535-2.66A.683.683,0,0,1,12.1,29.647Z" fill="#8bc1ff"/>
    <path id="Path_106" data-name="Path 106" d="M8.428,26.343a.7.7,0,0,1,.246.984L7.151,29.964a.7.7,0,0,1-.973.27.676.676,0,0,1-.258-.949l1.535-2.672A.7.7,0,0,1,8.428,26.343Z" fill="#8bc1ff"/>
    <path id="Path_107" data-name="Path 107" d="M30.975,18.34l1.816,1.8a.965.965,0,0,1-1.359,1.371l-1.828-1.8a.976.976,0,0,1,0-1.371A1,1,0,0,1,30.975,18.34Zm-1-5.426a5.829,5.829,0,0,1-2.8,4.953,7.133,7.133,0,0,0-6.658-6.336,9.27,9.27,0,0,0-1.285-1.611,5.779,5.779,0,0,1,10.742,2.994Zm6.34,0a.968.968,0,0,1-.961.973H32.814a.973.973,0,1,1,0-1.945h2.543A.975.975,0,0,1,36.318,12.914Zm-3.527-8.59a.99.99,0,0,1,0,1.383L30.986,7.5a.98.98,0,0,1-1.383,0,.962.962,0,0,1,0-1.359l1.828-1.816A.951.951,0,0,1,32.791,4.324Zm-15.82,0,1.8,1.816A.97.97,0,0,1,17.393,7.5L15.6,5.7a.976.976,0,0,1,.012-1.371A.962.962,0,0,1,16.971,4.324Zm8.191-2.6V4.266a.973.973,0,0,1-1.945,0V1.723a.973.973,0,1,1,1.945,0Z" fill="#ffdf94"/>
    <path id="Path_108" data-name="Path 108" d="M7.246,24.352h12.68a5.782,5.782,0,0,0,5.93-5.789c0-3.234-2.637-5.684-6.141-5.707a7.412,7.412,0,0,0-6.668-4.137,7.508,7.508,0,0,0-7.418,6.82A4.47,4.47,0,0,0,2.359,19.9C2.359,22.5,4.316,24.352,7.246,24.352Z" fill="#dcf1ff"/>
  </g>
</svg>
