<svg xmlns="http://www.w3.org/2000/svg" width="26.09" height="23.644" viewBox="0 0 26.09 23.644">
  <g id="_30" data-name="30" transform="translate(0 0)">
    <path id="Path_63" data-name="Path 63" d="M6.707,2.223A1.223,1.223,0,1,1,5.484,1,1.223,1.223,0,0,1,6.707,2.223Zm6.523,0A1.223,1.223,0,1,1,12.007,1,1.223,1.223,0,0,1,13.23,2.223ZM8.746,6.707A1.223,1.223,0,1,0,7.523,5.484,1.223,1.223,0,0,0,8.746,6.707ZM5.077,8.746A1.223,1.223,0,1,1,3.854,7.523,1.223,1.223,0,0,1,5.077,8.746ZM8.746,11.6a1.223,1.223,0,1,0-1.223-1.223A1.223,1.223,0,0,0,8.746,11.6Zm-5.3,5.3a1.223,1.223,0,1,1-1.223-1.223A1.223,1.223,0,0,1,3.446,16.9Zm.408,7.746a1.223,1.223,0,1,0-1.223-1.223,1.223,1.223,0,0,0,1.223,1.223Zm5.3-8.153a.815.815,0,1,1-.815-.815A.815.815,0,0,1,9.153,16.491Zm6.115-8.153a1.223,1.223,0,1,0-1.223-1.223A1.223,1.223,0,0,0,15.268,8.338Z" transform="translate(0.631 -1)" fill="#ffe8b4"/>
    <path id="Path_64" data-name="Path 64" d="M26.089,7.7c0-3.038-4.073-5.639-9.833-6.7,3.1,1.318,5.053,3.209,5.053,5.311,0,3.979-6.971,7.2-15.573,7.2A31.954,31.954,0,0,1,0,13.006,27.639,27.639,0,0,0,10.521,14.9a28.292,28.292,0,0,0,9.945-1.66,2.8,2.8,0,0,1,.016.287c0,2.984-5.228,5.4-11.675,5.4a23.853,23.853,0,0,1-4.3-.382,20.709,20.709,0,0,0,7.887,1.42A21.787,21.787,0,0,0,19.348,18.9c0,.033.01.064.01.095,0,2.239-3.922,4.051-8.758,4.051a17.924,17.924,0,0,1-3.229-.284,15.54,15.54,0,0,0,5.918,1.065c4.835,0,8.758-1.815,8.758-4.054a2.449,2.449,0,0,0-.233-.929,2.371,2.371,0,0,0-.571-.76c1.759-.946,2.828-2.177,2.828-3.522a3.4,3.4,0,0,0-.377-1.363,3.287,3.287,0,0,0-.894-1.076,5.433,5.433,0,0,0,2.218-1.758A5.691,5.691,0,0,0,26.09,7.7Z" transform="translate(0 -1)" fill="#ffbf77"/>
  </g>
</svg>
