<svg xmlns="http://www.w3.org/2000/svg" width="24.057" height="20.789" viewBox="0 0 24.057 20.789">
  <g id="_32" data-name="32" transform="translate(-1.094 -0.338)">
    <path id="Path_112" data-name="Path 112" d="M2.159,7.381a16.909,16.909,0,0,1,5.1-.82c2.156,0,3.738.352,5.777.352a3.2,3.2,0,0,0,3.422-3.293A3.215,3.215,0,0,0,13.186.338a3.329,3.329,0,0,0-3,1.957.745.745,0,0,0,.293,1.043.789.789,0,0,0,1.078-.4,1.8,1.8,0,0,1,1.629-1.066A1.67,1.67,0,0,1,14.92,3.619a1.719,1.719,0,0,1-1.887,1.77c-1.945,0-3.551-.352-5.777-.352a18.575,18.575,0,0,0-5.566.891.751.751,0,0,0-.562.961A.761.761,0,0,0,2.159,7.381Zm18.328,5.484c2.73,0,4.664-1.734,4.664-4.16A4.051,4.051,0,0,0,21.026,4.58a3.927,3.927,0,0,0-3.973,3.41.769.769,0,0,0,.621.937.8.8,0,0,0,.9-.762A2.43,2.43,0,0,1,21.026,6.1a2.535,2.535,0,0,1,2.59,2.6c0,1.559-1.23,2.637-3.129,2.637-3.574,0-7.43-2.039-12.117-2.039a19.87,19.87,0,0,0-6.68,1.113.8.8,0,0,0-.562.984.746.746,0,0,0,1.031.481A17.024,17.024,0,0,1,8.37,10.838C13.045,10.838,16.538,12.865,20.487,12.865Zm-7.441,8.262a3.129,3.129,0,0,0,3.2-3.246c0-2.766-2.824-4.312-8.027-4.312a20.954,20.954,0,0,0-6.527,1.1.8.8,0,0,0-.562.984.746.746,0,0,0,1.031.481A18.117,18.117,0,0,1,8.217,15.1c4.254,0,6.5,1.066,6.5,2.777A1.631,1.631,0,0,1,13.045,19.6,1.66,1.66,0,0,1,11.393,18a.837.837,0,0,0-.891-.762.752.752,0,0,0-.668.961A3.2,3.2,0,0,0,13.045,21.127Z" fill="#b2e5ff"/>
  </g>
</svg>
