<svg xmlns="http://www.w3.org/2000/svg" width="22.242" height="25.642" viewBox="0 0 22.242 25.642">
  <g id="_33" data-name="33" transform="translate(-0.137 -0.033)">
    <path id="Path_111" data-name="Path 111" d="M11.07,10.6c7.184,0,11.309-1.816,11.309-4.289,0-2.273-3.281-3.668-7.969-3.668A19.492,19.492,0,0,0,6.078,4.3a.9.9,0,0,0-.48,1.23.983.983,0,0,0,1.277.363A18.5,18.5,0,0,1,14.3,4.342c3.949,0,6.234.938,6.234,1.957,0,1.2-3.562,2.543-9.551,2.543-5.883,0-9.023-1.16-9.023-3.375,0-1.3,1.2-2.672,4.594-3.762A.865.865,0,0,0,7.215.581C7.051.1,6.617-.087,5.973.112,2.035,1.284.137,3.335.137,5.514.137,8.842,3.9,10.6,11.07,10.6Zm.352,3.867a26.087,26.087,0,0,0,9.434-1.582.765.765,0,0,0,.445-1.066c-.211-.4-.633-.469-1.16-.269a25.558,25.558,0,0,1-8.719,1.394,29.048,29.048,0,0,1-7.641-.973c-.527-.152-.961.012-1.09.457a.8.8,0,0,0,.633,1.008A31.818,31.818,0,0,0,11.422,14.467Zm.8,3.82a27.1,27.1,0,0,0,8.59-1.371.775.775,0,0,0,.563-1.066c-.164-.41-.586-.539-1.184-.34a25.351,25.351,0,0,1-7.969,1.242,26.707,26.707,0,0,1-3.375-.211c-.574-.07-.926.152-1,.574s.141.82.75.926A20.416,20.416,0,0,0,12.219,18.288Zm-1.066,3.6a19.169,19.169,0,0,0,6.9-.41.793.793,0,0,0,.6-1.019c-.141-.434-.551-.6-1.113-.457a16.738,16.738,0,0,1-6.129.4c-.562-.059-.949.2-1.008.633S10.566,21.815,11.152,21.885Zm-.8,3.715a9.408,9.408,0,0,0,2.367,0,.757.757,0,0,0,.75-.844c-.047-.387-.351-.668-.926-.6a9.323,9.323,0,0,1-2.062.012.739.739,0,0,0-.914.586A.762.762,0,0,0,10.356,25.6Z" fill="#b2e5ff"/>
  </g>
</svg>
