<svg xmlns="http://www.w3.org/2000/svg" width="26.754" height="25.934" viewBox="0 0 26.754 25.934">
  <g id="_35" data-name="35" transform="translate(-1.66 -0.678)">
    <path id="Path_74" data-name="Path 74" d="M22.777,25.123H7.531a.728.728,0,0,0-.738.738.738.738,0,0,0,.738.75H22.777a.738.738,0,0,0,.738-.75A.728.728,0,0,0,22.777,25.123Z" fill="rgba(152,183,213,0.85)"/>
    <path id="Path_75" data-name="Path 75" d="M22.777,21.15H7.531a.738.738,0,1,0,0,1.476H22.777a.738.738,0,1,0,0-1.476Z" fill="rgba(152,183,213,0.85)"/>
    <path id="Path_76" data-name="Path 76" d="M7.168,18.432H21.711a6.526,6.526,0,0,0,6.7-6.527c0-3.738-3.047-6.469-7.02-6.469A8.323,8.323,0,0,0,13.824.678,8.536,8.536,0,0,0,5.4,8.482,5.072,5.072,0,0,0,1.66,13.416C1.66,16.193,3.676,18.432,7.168,18.432Z" fill="#dcf1ff"/>
  </g>
</svg>
