<svg xmlns="http://www.w3.org/2000/svg" width="30.634" height="29.078" viewBox="0 0 30.634 29.078">
  <g id="_3d" data-name="3d" transform="translate(-2.684 -1.174)">
    <path id="Path_113" data-name="Path 113" d="M21.446,26.253a.691.691,0,0,1,.258.973l-1.523,2.648a.7.7,0,0,1-.973.27.67.67,0,0,1-.258-.949l1.535-2.672A.691.691,0,0,1,21.446,26.253Z" fill="#8bc1ff"/>
    <path id="Path_114" data-name="Path 114" d="M17.79,22.96a.692.692,0,0,1,.246.973l-1.523,2.637a.715.715,0,0,1-.973.281.68.68,0,0,1-.258-.961l1.535-2.66A.683.683,0,0,1,17.79,22.96Z" fill="#8bc1ff"/>
    <path id="Path_115" data-name="Path 115" d="M12.131,26.265a.678.678,0,0,1,.246.973l-1.523,2.649a.691.691,0,0,1-.961.269.673.673,0,0,1-.27-.949l1.535-2.672A.707.707,0,0,1,12.131,26.265Z" fill="#8bc1ff"/>
    <path id="Path_116" data-name="Path 116" d="M8.463,22.972a.686.686,0,0,1,.258.973L7.185,26.581a.7.7,0,0,1-.961.281.684.684,0,0,1-.27-.961l1.535-2.66A.688.688,0,0,1,8.463,22.972Z" fill="#8bc1ff"/>
    <path id="Path_117" data-name="Path 117" d="M25.864,1.76c0,.621-.832,1.758-.832,3.3,0,2.7,1.734,4.348,4.641,4.348,1.652,0,2.5-.75,3.07-.75.375,0,.574.34.574.8,0,1.754-1.875,4.925-5.757,5.455a7.159,7.159,0,0,0-6.7-6.791,9.356,9.356,0,0,0-1.177-1.5c.654-3.19,3.368-5.372,5.466-5.453C25.606,1.163,25.864,1.4,25.864,1.76Z" fill="#c8dbff"/>
    <path id="Path_118" data-name="Path 118" d="M7.535,20.98H20.226a5.745,5.745,0,0,0,5.895-5.754c0-3.234-2.625-5.672-6.129-5.7a7.383,7.383,0,0,0-6.644-4.137A7.484,7.484,0,0,0,5.953,12.2a4.453,4.453,0,0,0-3.27,4.348C2.684,19.176,4.664,20.98,7.535,20.98Z" fill="#dcf1ff"/>
  </g>
</svg>
