<svg xmlns="http://www.w3.org/2000/svg" width="26.754" height="28.133" viewBox="0 0 26.754 28.133">
  <g id="_4" data-name="4" transform="translate(-0.863 -1.963)">
    <path id="Path_67" data-name="Path 67" d="M22.485,28.753a.722.722,0,0,0,.973-.269l1.523-2.649a.7.7,0,0,0-.246-.973.683.683,0,0,0-.973.27l-1.535,2.66A.68.68,0,0,0,22.485,28.753Z" fill="#8bc1ff"/>
    <path id="Path_68" data-name="Path 68" d="M20.212,25.472a.7.7,0,0,0,.973-.27l1.523-2.637a.707.707,0,1,0-1.219-.715l-1.535,2.672A.665.665,0,0,0,20.212,25.472Z" fill="#8bc1ff"/>
    <path id="Path_69" data-name="Path 69" d="M17.058,24.065H14.4l-.023.527L15.8,21.85c.141-.258.035-.457-.223-.457H13.038a.509.509,0,0,0-.562.363l-1.594,3.633c-.129.293,0,.469.3.469h2.168l.152-.691L11.62,29.748c-.059.152-.023.281.082.328a.328.328,0,0,0,.363-.117l5.18-5.309C17.491,24.393,17.4,24.065,17.058,24.065Z" fill="#ffdf94"/>
    <path id="Path_70" data-name="Path 70" d="M6.2,28.753a.722.722,0,0,0,.973-.269l1.523-2.649a.691.691,0,0,0-.258-.973.673.673,0,0,0-.961.27l-1.547,2.66A.693.693,0,0,0,6.2,28.753Z" fill="#8bc1ff"/>
    <path id="Path_71" data-name="Path 71" d="M3.923,25.472A.7.7,0,0,0,4.9,25.2l1.523-2.637a.7.7,0,0,0-.258-.984.691.691,0,0,0-.961.27L3.665,24.523A.665.665,0,0,0,3.923,25.472Z" fill="#8bc1ff"/>
    <path id="Path_72" data-name="Path 72" d="M6.371,19.717H20.914a6.526,6.526,0,0,0,6.7-6.527c0-3.738-3.047-6.469-7.02-6.469a8.323,8.323,0,0,0-7.57-4.758A8.536,8.536,0,0,0,4.6,9.768,5.072,5.072,0,0,0,.863,14.7C.863,17.479,2.879,19.717,6.371,19.717Z" fill="#dcf1ff"/>
  </g>
</svg>
