<svg xmlns="http://www.w3.org/2000/svg" width="25.997" height="11.366" viewBox="0 0 25.997 11.366">
  <path id="_53" data-name="53" d="M20.451,4.487c-2.578,0-6.32,2.792-7.452,4.709C11.872,7.28,8.13,4.487,5.552,4.487a5.684,5.684,0,0,0,0,11.366c2.576,0,6.32-2.854,7.45-4.739,1.13,1.885,4.872,4.739,7.45,4.739a5.684,5.684,0,0,0,0-11.366h0ZM5.55,14.222a4.054,4.054,0,0,1,0-8.1c2.135,0,5.645,2.845,6.134,4.037-.5,1.1-3.943,4.067-6.134,4.067Zm14.9,0c-2.193,0-5.637-2.968-6.134-4.067.489-1.19,4-4.037,6.134-4.037a4.054,4.054,0,0,1,0,8.1Z" transform="translate(-0.004 -4.487)" fill="#8bc1ff"/>
</svg>
