<svg xmlns="http://www.w3.org/2000/svg" width="26.754" height="28.793" viewBox="0 0 26.754 28.793">
  <g id="_6" data-name="6" transform="translate(-0.891 -2.695)">
    <path id="Path_87" data-name="Path 87" d="M18.024,29.742a.379.379,0,0,0,.351-.422l-.082-1.113.938.633a.4.4,0,0,0,.539-.105.387.387,0,0,0-.176-.551l-1.008-.492,1.02-.5a.4.4,0,0,0,.176-.539.4.4,0,0,0-.551-.105l-.937.645.094-1.125a.374.374,0,0,0-.363-.422.379.379,0,0,0-.387.422l.082,1.125-.949-.645a.362.362,0,0,0-.527.105.379.379,0,0,0,.164.539l1.008.5-1.008.492a.393.393,0,0,0-.176.551.382.382,0,0,0,.539.105l.949-.621-.07,1.1A.376.376,0,0,0,18.024,29.742Z" fill="#6dd4e9"/>
    <path id="Path_88" data-name="Path 88" d="M11.332,31.488a.368.368,0,0,0,.352-.41l-.07-1.113.926.621a.407.407,0,0,0,.551-.105.387.387,0,0,0-.176-.551l-1.008-.481,1.02-.5a.413.413,0,0,0,.176-.551.408.408,0,0,0-.562-.105l-.926.656.082-1.137a.371.371,0,1,0-.738,0l.07,1.137-.937-.656a.373.373,0,0,0-.539.105.392.392,0,0,0,.164.551l1.019.5-1.019.492a.381.381,0,0,0-.176.539.387.387,0,0,0,.551.117l.938-.633-.059,1.113A.363.363,0,0,0,11.332,31.488Z" fill="#6dd4e9"/>
    <path id="Path_89" data-name="Path 89" d="M5.742,29.7a.375.375,0,0,0,.352-.41L6.012,28.16l.938.633a.393.393,0,0,0,.539-.105.387.387,0,0,0-.176-.551L6.3,27.645l1.02-.5A.4.4,0,0,0,7.5,26.6a.394.394,0,0,0-.551-.106l-.937.645.094-1.125a.37.37,0,0,0-.363-.41.375.375,0,0,0-.387.41l.082,1.125L4.488,26.5a.362.362,0,0,0-.527.106.376.376,0,0,0,.164.539l1.008.5-1.008.492a.393.393,0,0,0-.176.551.376.376,0,0,0,.539.117l.949-.633-.07,1.113A.372.372,0,0,0,5.742,29.7Z" fill="#6dd4e9"/>
    <path id="Path_90" data-name="Path 90" d="M20.191,24.715l.785-1.383a.7.7,0,0,0-.246-.984.714.714,0,0,0-.973.269l-.8,1.418a.679.679,0,0,0,.258.949A.711.711,0,0,0,20.191,24.715Z" fill="#8bc1ff"/>
    <path id="Path_91" data-name="Path 91" d="M13.021,26.46,14.849,23.3a.7.7,0,0,0-.246-.973.681.681,0,0,0-.973.27l-1.84,3.187a.669.669,0,0,0,.269.949A.688.688,0,0,0,13.021,26.46Z" fill="#8bc1ff"/>
    <path id="Path_92" data-name="Path 92" d="M7.91,24.669l.785-1.383a.7.7,0,0,0-.246-.984.714.714,0,0,0-.973.27l-.8,1.418a.679.679,0,0,0,.258.949A.7.7,0,0,0,7.91,24.669Z" fill="#8bc1ff"/>
    <path id="Path_93" data-name="Path 93" d="M6.4,20.449H20.941a6.526,6.526,0,0,0,6.7-6.527c0-3.738-3.047-6.469-7.02-6.469A8.323,8.323,0,0,0,13.055,2.7a8.536,8.536,0,0,0-8.426,7.8A5.072,5.072,0,0,0,.891,15.434C.891,18.211,2.906,20.449,6.4,20.449Z" fill="#dcf1ff"/>
  </g>
</svg>
