<svg xmlns="http://www.w3.org/2000/svg" width="26.754" height="23.602" viewBox="0 0 26.754 23.602">
  <g id="_8" data-name="8" transform="translate(-1.641 -0.836)">
    <path id="Path_83" data-name="Path 83" d="M16.782,24.062l1.523-2.649a.691.691,0,0,0-.258-.973.681.681,0,0,0-.961.269l-1.535,2.672a.67.67,0,0,0,.258.949A.711.711,0,0,0,16.782,24.062Z" fill="#8bc1ff"/>
    <path id="Path_85" data-name="Path 85" d="M7.455,24.074l1.523-2.648a.678.678,0,0,0-.246-.973.7.7,0,0,0-.973.27L6.224,23.394a.673.673,0,0,0,.27.949A.7.7,0,0,0,7.455,24.074Z" fill="#8bc1ff"/>
    <path id="Path_86" data-name="Path 86" d="M7.148,18.59H21.691a6.526,6.526,0,0,0,6.7-6.527c0-3.738-3.047-6.469-7.02-6.469A8.323,8.323,0,0,0,13.8.836a8.536,8.536,0,0,0-8.426,7.8,5.072,5.072,0,0,0-3.738,4.934C1.641,16.351,3.656,18.59,7.148,18.59Z" fill="#dcf1ff"/>
    <path id="Path_122" data-name="Path 122" d="M16.782,24.062l1.523-2.649a.691.691,0,0,0-.258-.973.681.681,0,0,0-.961.269l-1.535,2.672a.67.67,0,0,0,.258.949A.711.711,0,0,0,16.782,24.062Z" transform="translate(4.665)" fill="#8bc1ff"/>
    <path id="Path_123" data-name="Path 123" d="M16.782,24.062l1.523-2.649a.691.691,0,0,0-.258-.973.681.681,0,0,0-.961.269l-1.535,2.672a.67.67,0,0,0,.258.949A.711.711,0,0,0,16.782,24.062Z" transform="translate(-4.665)" fill="#8bc1ff"/>
  </g>
</svg>
