<svg xmlns="http://www.w3.org/2000/svg" xmlns:xlink="http://www.w3.org/1999/xlink" width="19.061" height="27.792" viewBox="0 0 19.061 27.792">
  <defs>
    <clipPath id="clip-path">
      <rect id="Rectangle_82" data-name="Rectangle 82" width="19.061" height="27.792" transform="translate(0.613 0.961)" fill="#fff"/>
    </clipPath>
  </defs>
  <g id="thermometer.high" transform="translate(-0.613 -0.961)" clip-path="url(#clip-path)">
    <path id="Path_438" data-name="Path 438" d="M15.307,5.351h2.71a.725.725,0,1,0,0-1.449h-2.71a.725.725,0,1,0,0,1.449Zm0,3.51h2.71a.725.725,0,1,0,0-1.449h-2.71a.725.725,0,1,0,0,1.449Zm0,3.51h2.71a.72.72,0,0,0,.737-.724.73.73,0,0,0-.737-.737h-2.71a.73.73,0,0,0-.737.737A.72.72,0,0,0,15.307,12.371Zm0,3.51h2.71a.731.731,0,1,0,0-1.461h-2.71a.731.731,0,1,0,0,1.461Z" transform="translate(0.919 0.194)" fill="#fff"/>
    <path id="Path_439" data-name="Path 439" d="M9.8,28.715a6.514,6.514,0,0,0,6.508-6.52,6.428,6.428,0,0,0-2.273-4.909.83.83,0,0,1-.325-.762l.012-11.291C13.717,2.7,12.118.961,9.8.961c-2.348,0-3.96,1.736-3.96,4.272l.012,11.291a.8.8,0,0,1-.325.762A6.494,6.494,0,0,0,9.8,28.715Zm0-1.811a4.712,4.712,0,0,1-4.709-4.709,4.574,4.574,0,0,1,2.061-3.86,1.038,1.038,0,0,0,.537-1.012V5.308A2.22,2.22,0,0,1,9.8,2.8c1.224,0,2.086,1.012,2.086,2.511V17.324a1.038,1.038,0,0,0,.537,1.012,4.574,4.574,0,0,1,2.061,3.86A4.715,4.715,0,0,1,9.8,26.9Z" transform="translate(0.174 0)" fill="#fff"/>
    <path id="Path_440" data-name="Path 440" d="M9.566,25.028a3.019,3.019,0,0,0,1.4-5.7c-.4-.212-.537-.362-.537-.974V4.831a.87.87,0,1,0-1.724,0V18.358c0,.612-.137.762-.537.974a3.019,3.019,0,0,0,1.4,5.7Z" transform="translate(0.391 0.19)" fill="#ff9a8e"/>
  </g>
</svg>
