<svg xmlns="http://www.w3.org/2000/svg" width="33.959" height="23.602" viewBox="0 0 33.959 23.602">
  <g id="_99" data-name="99" transform="translate(-2.523 -1.102)">
    <path id="Path_101" data-name="Path 101" d="M31.139,18.691l1.816,1.8a.962.962,0,0,1,0,1.359.952.952,0,0,1-1.359.012l-1.828-1.8a.976.976,0,0,1,0-1.371A1,1,0,0,1,31.139,18.691Zm-1-5.426a5.821,5.821,0,0,1-2.8,4.956,7.153,7.153,0,0,0-6.658-6.339A9.262,9.262,0,0,0,19.4,10.274a5.777,5.777,0,0,1,10.74,2.991Zm6.34,0a.968.968,0,0,1-.961.973H32.979a.986.986,0,0,1-.973-.973,1,1,0,0,1,.973-.973h2.543A.983.983,0,0,1,36.482,13.266Zm-3.527-8.59a.99.99,0,0,1,0,1.383l-1.8,1.793a.98.98,0,0,1-1.383,0,.962.962,0,0,1,0-1.359L31.6,4.676A.962.962,0,0,1,32.955,4.676Zm-15.82,0,1.8,1.816a.97.97,0,0,1-1.383,1.359l-1.793-1.8a.97.97,0,0,1,1.371-1.371Zm8.191-2.6V4.629a.973.973,0,0,1-1.945,0V2.074a.973.973,0,1,1,1.945,0Z" fill="#ccc"/>
    <path id="Path_102" data-name="Path 102" d="M7.41,24.7H20.09a5.782,5.782,0,0,0,5.93-5.789c0-3.234-2.637-5.684-6.141-5.707A7.412,7.412,0,0,0,13.211,9.07a7.508,7.508,0,0,0-7.418,6.82,4.47,4.47,0,0,0-3.27,4.359C2.523,22.852,4.48,24.7,7.41,24.7Z" fill="#e9e9e9"/>
  </g>
</svg>
