<svg xmlns="http://www.w3.org/2000/svg" xmlns:xlink="http://www.w3.org/1999/xlink" width="48.949" height="27.402" viewBox="0 0 48.949 27.402">
  <defs>
    <clipPath id="clip-path">
      <rect id="Rectangle_12" data-name="Rectangle 12" width="48.949" height="27.402" transform="translate(-1.875 -7.709)" fill="#fff"/>
    </clipPath>
  </defs>
  <g id="abc" transform="translate(1.875 7.709)" clip-path="url(#clip-path)">
    <path id="Path_3" data-name="Path 3" d="M38.832,17.623c2.988,0,5.332-1.289,6.48-3.527a2.961,2.961,0,0,0,.375-1.336A.929.929,0,0,0,44.7,11.8c-.469,0-.726.188-1,.773a4.853,4.853,0,0,1-4.875,3.094c-3.41,0-5.59-2.578-5.59-6.75,0-4.1,2.18-6.668,5.59-6.668a5.041,5.041,0,0,1,4.828,3.34c.27.586.586.832,1.09.832a.914.914,0,0,0,.973-.961,2.791,2.791,0,0,0-.2-1.008C44.6,1.873,41.914.291,38.832.291c-4.77,0-7.8,3.316-7.8,8.637C31.027,14.295,34.039,17.623,38.832,17.623Z" fill="rgba(0,0,0,0.85)" stroke="#222" stroke-width="0.7"/>
    <path id="Path_4" data-name="Path 4" d="M17.527,17.342h5.7c3.715,0,5.953-1.828,5.953-4.606a4.243,4.243,0,0,0-4.09-4.23V8.424A3.853,3.853,0,0,0,28.3,4.615C28.3,2.26,26.246.572,23.164.572H17.527a1.016,1.016,0,0,0-1.078,1.1V16.24A1.021,1.021,0,0,0,17.527,17.342Zm1.137-9.516V2.447h4c2.145,0,3.434,1,3.434,2.484,0,1.828-1.441,2.895-3.914,2.895Zm0,7.652V9.572h3.949c2.789,0,4.3,1.066,4.3,3.035,0,1.781-1.465,2.871-4.1,2.871Z" fill="rgba(0,0,0,0.85)" stroke="#222" stroke-width="0.7"/>
    <path id="Path_5" data-name="Path 5" d="M1.109,17.682c.621,0,.926-.27,1.148-.914L3.77,12.619h6.914L12.2,16.768c.223.645.527.914,1.137.914a.954.954,0,0,0,1.02-1,1.737,1.737,0,0,0-.129-.633L8.727,1.428A1.549,1.549,0,0,0,5.75,1.416L.254,16.064a1.736,1.736,0,0,0-.129.633A.923.923,0,0,0,1.109,17.682ZM4.344,10.85,7.191,2.963H7.25L10.1,10.85Z" fill="rgba(0,0,0,0.85)" stroke="#222" stroke-width="0.7"/>
  </g>
</svg>
