<svg xmlns="http://www.w3.org/2000/svg" xmlns:xlink="http://www.w3.org/1999/xlink" width="28.962" height="31.728" viewBox="0 0 28.962 31.728">
  <defs>
    <clipPath id="clip-path">
      <rect id="Rectangle_13" data-name="Rectangle 13" width="28.962" height="31.728" transform="translate(-0.156 -3.469)" fill="#fff" stroke="#222" stroke-width="0.7"/>
    </clipPath>
  </defs>
  <g id="after_school" transform="translate(0.156 3.469)" clip-path="url(#clip-path)">
    <path id="Path_6" data-name="Path 6" d="M7.053,24H9.584a.771.771,0,0,1,.6.246l1.8,1.793c1.476,1.488,2.848,1.476,4.324,0l1.8-1.793a.771.771,0,0,1,.6-.246h2.531c2.1,0,3.07-.961,3.07-3.07V18.4a.788.788,0,0,1,.246-.6L26.342,16c1.488-1.477,1.477-2.836,0-4.324l-1.781-1.8a.763.763,0,0,1-.246-.586V6.741c0-2.086-.961-3.07-3.07-3.07H18.713a.761.761,0,0,1-.6-.234l-1.8-1.793c-1.477-1.488-2.848-1.477-4.324,0l-1.8,1.793a.761.761,0,0,1-.6.234H7.053c-2.1,0-3.07.961-3.07,3.07V9.284a.752.752,0,0,1-.234.586l-1.793,1.8C.467,13.163.479,14.522,1.956,16l1.793,1.8a.777.777,0,0,1,.234.6v2.531C3.983,23.03,4.956,24,7.053,24Zm0-1.863c-1.043,0-1.207-.164-1.207-1.207V17.78a1.151,1.151,0,0,0-.363-.879L3.268,14.7c-.738-.75-.738-.961,0-1.711l2.215-2.2a1.159,1.159,0,0,0,.363-.891V6.741c0-1.055.152-1.207,1.207-1.207h3.152A1.12,1.12,0,0,0,11.1,5.17l2.2-2.215c.75-.738.961-.738,1.7,0L17.213,5.17a1.1,1.1,0,0,0,.879.363h3.152c1.043,0,1.207.164,1.207,1.207V9.893a1.17,1.17,0,0,0,.375.891l2.215,2.2c.738.75.738.961,0,1.711l-2.215,2.2a1.162,1.162,0,0,0-.375.879v3.152c0,1.043-.164,1.207-1.207,1.207H18.092a1.106,1.106,0,0,0-.879.375L15,24.729c-.738.738-.949.738-1.7,0l-2.2-2.215a1.13,1.13,0,0,0-.891-.375Z" fill="rgba(0,0,0,0.85)" stroke="#222" stroke-width="0.7"/>
    <path id="Path_7" data-name="Path 7" d="M12.879,19.4a1.113,1.113,0,0,0,.949-.539l5.355-8.438a1.585,1.585,0,0,0,.281-.75.9.9,0,0,0-.949-.855.989.989,0,0,0-.82.527l-4.863,7.8-2.309-2.988a.986.986,0,0,0-.855-.48.913.913,0,0,0-.914.938,1.265,1.265,0,0,0,.27.726l2.859,3.516A1.179,1.179,0,0,0,12.879,19.4Z" fill="rgba(0,0,0,0.85)" stroke="#222" stroke-width="0.7"/>
  </g>
</svg>
