<svg xmlns="http://www.w3.org/2000/svg" xmlns:xlink="http://www.w3.org/1999/xlink" width="30.582" height="25.707" viewBox="0 0 30.582 25.707">
  <defs>
    <clipPath id="clip-path">
      <rect id="Rectangle_14" data-name="Rectangle 14" width="30.582" height="25.707" transform="translate(-0.512 -0.426)" fill="#fff" stroke="#222" stroke-width="0.7"/>
    </clipPath>
  </defs>
  <g id="art" transform="translate(0.512 0.426)" clip-path="url(#clip-path)">
    <path id="Path_8" data-name="Path 8" d="M15.652,24.047c4.934,0,8.227-1.746,8.227-4.324,0-2.309-1.969-2.824-1.969-4.184,0-1.875,6.809-2.25,6.809-7.066,0-4.758-4.91-7.9-12.2-7.9C6.945.574.488,5.355.488,12.516.488,19.406,6.617,24.047,15.652,24.047Zm0-2c-7.934,0-13.16-3.82-13.16-9.527,0-5.977,5.555-9.937,14.027-9.937,6.152,0,10.2,2.391,10.2,5.895,0,4.09-6.855,3.539-6.855,7.078,0,2,2.016,2.637,2.016,4.019C21.875,21.059,19.426,22.043,15.652,22.043Zm-.961-2.766a3.246,3.246,0,1,0-3.246-3.258A3.263,3.263,0,0,0,14.691,19.277Zm0-1.359a1.888,1.888,0,0,1-1.887-1.9,1.887,1.887,0,0,1,3.773,0A1.881,1.881,0,0,1,14.691,17.918Z" fill="rgba(0,0,0,0.85)" stroke="#222" stroke-width="0.7"/>
    <path id="Path_9" data-name="Path 9" d="M6.406,14.121a1.961,1.961,0,0,0,1.945-1.969,1.945,1.945,0,0,0-3.891,0A1.968,1.968,0,0,0,6.406,14.121Z" fill="rgba(0,0,0,0.85)" stroke="#222" stroke-width="0.7"/>
    <path id="Path_10" data-name="Path 10" d="M10.684,10.371A2.449,2.449,0,1,0,8.211,7.9,2.456,2.456,0,0,0,10.684,10.371Z" fill="rgba(0,0,0,0.85)" stroke="#222" stroke-width="0.7"/>
    <path id="Path_11" data-name="Path 11" d="M16.625,8.473a1.975,1.975,0,0,0,0-3.949,1.975,1.975,0,1,0,0,3.949Z" fill="rgba(0,0,0,0.85)" stroke="#222" stroke-width="0.7"/>
    <path id="Path_12" data-name="Path 12" d="M21.98,9.223a1.6,1.6,0,0,0,0-3.2,1.6,1.6,0,1,0,0,3.2Z" fill="rgba(0,0,0,0.85)" stroke="#222" stroke-width="0.7"/>
  </g>
</svg>
