<svg xmlns="http://www.w3.org/2000/svg" width="41.802" height="30.336" viewBox="0 0 41.802 30.336">
  <g id="attend_class" transform="translate(-0.086 5.645)">
    <path id="Path_35" data-name="Path 35" d="M4.609,20.366a1.051,1.051,0,0,0-.164-1.453A9.714,9.714,0,0,1,2,12.35,9.714,9.714,0,0,1,4.445,5.788a1.051,1.051,0,0,0,.164-1.453.953.953,0,0,0-1.477.059A11.668,11.668,0,0,0,.086,12.35a11.689,11.689,0,0,0,3.047,7.957.961.961,0,0,0,1.476.059Zm32.754,0a.961.961,0,0,0,1.477-.059,11.689,11.689,0,0,0,3.047-7.957A11.668,11.668,0,0,0,38.84,4.393a.953.953,0,0,0-1.477-.059,1.051,1.051,0,0,0,.164,1.453,9.714,9.714,0,0,1,2.449,6.562,9.714,9.714,0,0,1-2.449,6.563,1.051,1.051,0,0,0-.164,1.454Z" fill="#fff"/>
    <path id="Path_36" data-name="Path 36" d="M7.891,17.025c.375-.422.223-.949-.152-1.453A5.086,5.086,0,0,1,6.7,12.35,5.063,5.063,0,0,1,7.738,9.127c.375-.5.527-1.031.152-1.453a.957.957,0,0,0-1.5.082,7.375,7.375,0,0,0,0,9.187.964.964,0,0,0,1.5.082Zm26.18,0a.976.976,0,0,0,1.512-.082,7.375,7.375,0,0,0,0-9.187.969.969,0,0,0-1.512-.082c-.363.422-.211.949.164,1.453a5.132,5.132,0,0,1,1.043,3.223,5.156,5.156,0,0,1-1.043,3.223c-.376.5-.528,1.027-.165,1.452Z" fill="#fff"/>
    <path id="Path_37" data-name="Path 37" d="M11.7,19.99H30.273c1.1,0,1.77-.563,1.77-1.418,0-1.172-1.2-2.227-2.2-3.27-.773-.809-.984-2.473-1.078-3.82-.082-4.5-1.277-7.594-4.4-8.719a3.455,3.455,0,0,0-6.762,0c-3.117,1.125-4.312,4.219-4.394,8.719-.094,1.348-.3,3.012-1.078,3.82-1.02,1.043-2.2,2.1-2.2,3.27C9.93,19.428,10.586,19.99,11.7,19.99Zm9.281,4.7a3.524,3.524,0,0,0,3.6-3.094H17.4A3.52,3.52,0,0,0,20.98,24.69Z" fill="#fff"/>
    <rect id="Rectangle_26" data-name="Rectangle 26" width="41" height="6" transform="translate(0.471 -5.645)" fill="#fff" opacity="0"/>
  </g>
</svg>
