<svg id="bilibili-svgrepo-com_-_Copy" data-name="bilibili-svgrepo-com - Copy" xmlns="http://www.w3.org/2000/svg" width="24" height="24" viewBox="0 0 24 24">
  <path id="Path_16" data-name="Path 16" d="M0,0H24V24H0Z" fill="none"/>
  <path id="Path_17" data-name="Path 17" d="M18.223,3.086a1.25,1.25,0,0,1,0,1.768L17.08,6h1.17A3.75,3.75,0,0,1,22,9.747v7.5A3.75,3.75,0,0,1,18.25,21H5.75A3.75,3.75,0,0,1,2,17.247v-7.5A3.75,3.75,0,0,1,5.75,6H6.916L5.775,4.855A1.25,1.25,0,1,1,7.542,3.087l2.652,2.652a1.235,1.235,0,0,1,.2.257h3.213a1.22,1.22,0,0,1,.2-.258l2.651-2.652a1.25,1.25,0,0,1,1.768,0Zm.027,5.42H5.75A1.25,1.25,0,0,0,4.5,9.663l0,.094v7.5A1.249,1.249,0,0,0,5.657,18.5l.093,0h12.5A1.25,1.25,0,0,0,19.5,17.35l0-.093v-7.5a1.25,1.25,0,0,0-1.25-1.25Zm-10,2.5a1.25,1.25,0,0,1,1.25,1.25v1.25a1.25,1.25,0,1,1-2.5,0v-1.25A1.25,1.25,0,0,1,8.25,11.006Zm7.5,0A1.25,1.25,0,0,1,17,12.256v1.25a1.25,1.25,0,1,1-2.5,0v-1.25A1.25,1.25,0,0,1,15.75,11.006Z" fill="#fff"/>
</svg>
