<svg xmlns="http://www.w3.org/2000/svg" width="19.347" height="26.886" viewBox="0 0 19.347 26.886">
  <g id="biology" transform="translate(-5.75 -1.75)">
    <path id="Path_134" data-name="Path 134" d="M22.651,20.15a13.193,13.193,0,0,0-3.713-3.769L17.12,15.193l1.819-1.216A13.193,13.193,0,0,0,24.847,2.942a.942.942,0,0,0-1.885,0,5.222,5.222,0,0,1-.057.942H7.941a5.222,5.222,0,0,1-.057-.942A.942.942,0,1,0,6,2.942a13.193,13.193,0,0,0,1.941,6.87.942.942,0,0,0,.254.424,13.193,13.193,0,0,0,3.713,3.769l1.819,1.187-1.819,1.216A13.193,13.193,0,0,0,8.2,20.178a.942.942,0,0,0-.254.424A13.193,13.193,0,0,0,6,27.443a.942.942,0,0,0,1.885,0,5.222,5.222,0,0,1,.057-.942H20.135a.942.942,0,0,0,0-1.885H8.243A11.233,11.233,0,0,1,9.4,21.789H21.445a11.384,11.384,0,0,1,1.517,5.654.942.942,0,1,0,1.885,0,13.193,13.193,0,0,0-1.941-6.87.942.942,0,0,0-.254-.424Zm-9.7-7.737a11.421,11.421,0,0,1-2.243-1.932h7.539a.942.942,0,1,0,0-1.885H9.4A11.233,11.233,0,0,1,8.243,5.769H22.6a11.355,11.355,0,0,1-4.712,6.644l-2.469,1.649ZM10.712,19.9a11.421,11.421,0,0,1,2.243-1.885l2.469-1.7,2.469,1.7A11.421,11.421,0,0,1,20.135,19.9Z" fill="#222" stroke="#222" stroke-width="0.5"/>
  </g>
</svg>
