<svg xmlns="http://www.w3.org/2000/svg" xmlns:xlink="http://www.w3.org/1999/xlink" width="26.258" height="25.918" viewBox="0 0 26.258 25.918">
  <defs>
    <clipPath id="clip-path">
      <rect id="Rectangle_15" data-name="Rectangle 15" width="26.258" height="25.918" transform="translate(-0.988 -0.322)" fill="#fff" stroke="#222" stroke-width="0.7"/>
    </clipPath>
  </defs>
  <g id="break" transform="translate(0.988 0.322)" clip-path="url(#clip-path)">
    <path id="Path_13" data-name="Path 13" d="M11.965,24.584A12.042,12.042,0,0,0,23.918,12.631,12.044,12.044,0,0,0,11.953.678,12.032,12.032,0,0,0,.012,12.631,12.049,12.049,0,0,0,11.965,24.584Zm0-1.992a9.961,9.961,0,1,1,9.961-9.961A9.913,9.913,0,0,1,11.965,22.592Z" fill="rgba(0,0,0,0.85)" stroke="#222" stroke-width="0.7"/>
    <path id="Path_14" data-name="Path 14" d="M5.836,13.9h6.117a.808.808,0,0,0,.82-.82v-7.9a.805.805,0,0,0-.82-.809.8.8,0,0,0-.809.809v7.09H5.836a.815.815,0,1,0,0,1.629Z" fill="rgba(0,0,0,0.85)" stroke="#222" stroke-width="0.7"/>
  </g>
</svg>
