<svg xmlns="http://www.w3.org/2000/svg" width="24.369" height="26.963" viewBox="0 0 24.369 26.963">
  <g id="chemistry" transform="translate(-11.84 0.55)">
    <g id="Group_23" data-name="Group 23" transform="translate(12.39)">
      <g id="Group_22" data-name="Group 22">
        <path id="Path_15" data-name="Path 15" d="M41.192,46.553l-3.36-1.94a.431.431,0,0,0-.435,0l-3.4,2.017a.431.431,0,0,0,.44.742l3.187-1.888L40.761,47.3a.431.431,0,0,0,.431-.747Z" transform="translate(-31.542 -39.891)" fill="#222" stroke="#222" stroke-width="1.1"/>
        <path id="Path_16" data-name="Path 16" d="M35.443,5.446l-5.422-3.13a1.967,1.967,0,1,0-.36.788L34.8,6.068v5.968L29.628,15.02,24.46,12.036V5.819a.423.423,0,0,0-.2-.351c-.01-.007-.018-.016-.029-.022l-.028-.016-.014-.008L18.636,2.213a.431.431,0,0,0-.431,0l-5.6,3.233a.431.431,0,0,0-.216.373v6.466a.431.431,0,0,0,.216.373l5.388,3.111V22.2a.431.431,0,0,0,.216.373l5.6,3.233a.432.432,0,0,0,.431,0L29.446,22.8a1.922,1.922,0,0,0,1.26.477,1.944,1.944,0,1,0-1.78-1.172l-4.9,2.83-5.168-2.984V15.765l5.168-2.984,5.388,3.111a.432.432,0,0,0,.431,0l5.6-3.233a.431.431,0,0,0,.216-.373V5.819A.432.432,0,0,0,35.443,5.446ZM28.119,3.017A1.078,1.078,0,1,1,29.2,1.94,1.079,1.079,0,0,1,28.119,3.017ZM30.706,20.26a1.078,1.078,0,0,1,0,2.155,1.066,1.066,0,0,1-.657-.229.42.42,0,0,0-.052-.2.43.43,0,0,0-.27-.2,1.066,1.066,0,0,1-.1-.445A1.079,1.079,0,0,1,30.706,20.26ZM18.421,15.02l-5.169-2.984V6.068l5.168-2.984,5.169,2.984v5.968Z" transform="translate(-12.39)" fill="#222" stroke="#222" stroke-width="1.1"/>
      </g>
    </g>
  </g>
</svg>
