<svg xmlns="http://www.w3.org/2000/svg" xmlns:xlink="http://www.w3.org/1999/xlink" width="20.063" height="25.113" viewBox="0 0 20.063 25.113">
  <defs>
    <clipPath id="clip-path">
      <rect id="Rectangle_16" data-name="Rectangle 16" width="20.063" height="25.113" transform="translate(0.098 0.961)" fill="#fff" stroke="#222" stroke-width="0.6"/>
    </clipPath>
  </defs>
  <g id="chinese" transform="translate(-0.098 -0.961)" clip-path="url(#clip-path)">
    <path id="Path_17" data-name="Path 17" d="M7,8.473h8.789a.77.77,0,0,0,.762-.773.76.76,0,0,0-.762-.762H7a.76.76,0,0,0-.762.762A.77.77,0,0,0,7,8.473ZM7,11.7h6.668a.77.77,0,0,0,.762-.773.76.76,0,0,0-.762-.762H7a.76.76,0,0,0-.762.762A.77.77,0,0,0,7,11.7ZM3.7,26.074H18.871a.933.933,0,0,0,.938-.937.973.973,0,0,0-.656-.9c-1.477-.586-1.781-2.5-.328-3.961a2.809,2.809,0,0,0,.984-2.191V4.641c0-2.437-1.207-3.68-3.633-3.68H3.73Q.092.961.1,4.641V22.453C.1,24.867,1.316,26.074,3.7,26.074ZM1.984,19.3V4.676A1.64,1.64,0,0,1,3.813,2.848h12.27a1.643,1.643,0,0,1,1.84,1.828V17.824a.914.914,0,0,1-1.02,1H3.895A3.581,3.581,0,0,0,1.984,19.3ZM3.8,24.188a1.608,1.608,0,0,1-1.816-1.746,1.717,1.717,0,0,1,1.922-1.734H15.93a2.136,2.136,0,0,0,.41-.035,3.716,3.716,0,0,0,.164,3.516Zm-.434-4.359H4.9V2.391H3.367Z" fill="rgba(0,0,0,0.85)" stroke="#222" stroke-width="0.6"/>
  </g>
</svg>
