<svg xmlns="http://www.w3.org/2000/svg" width="22.305" height="27.78" viewBox="0 0 22.305 27.78">
  <g id="geography" transform="translate(-11.11 -5.357)">
    <path id="Path_18" data-name="Path 18" d="M38.2,12.618l-1.4,1.788a.594.594,0,0,1-.458.222H34.43a.61.61,0,0,1-.292-.081l-.72-.418a.574.574,0,0,0-.625.025l-1.083.776a.574.574,0,0,1-.66,0l-2.156-1.476a.584.584,0,0,1-.131-.831L31.7,8.84" transform="translate(-8.231 -1.062)" fill="none" stroke="#222" stroke-linecap="round" stroke-miterlimit="10" stroke-width="1.9"/>
    <circle id="Ellipse_2" data-name="Ellipse 2" cx="8.331" cy="8.331" r="8.331" transform="translate(14.735 7.445)" fill="none" stroke="#222" stroke-linecap="round" stroke-miterlimit="10" stroke-width="1.9"/>
    <path id="Path_19" data-name="Path 19" d="M30.752,25.348a10.94,10.94,0,1,1-15.5-15.439" transform="translate(0 -1.593)" fill="none" stroke="#222" stroke-linecap="round" stroke-miterlimit="10" stroke-width="1.9"/>
    <path id="Path_20" data-name="Path 20" d="M20.1,31.062l2.735-2.337a.584.584,0,0,1,.71-.045l1.219.836a.569.569,0,0,0,.564.05l1.864-1.259a.569.569,0,0,1,.584.06l2.015,1.164a.579.579,0,0,1,.106.821L28.718,32.4a.579.579,0,0,1-.68.176l-1.828-.5a.579.579,0,0,0-.8.473l-.212,2.05" transform="translate(-3.99 -10.697)" fill="none" stroke="#222" stroke-linecap="round" stroke-miterlimit="10" stroke-width="1.9"/>
    <line id="Line_5" data-name="Line 5" x2="3.219" y2="3.36" transform="translate(28.853 21.771)" fill="none" stroke="#222" stroke-linecap="round" stroke-miterlimit="10" stroke-width="1.9"/>
    <line id="Line_6" data-name="Line 6" x1="3.249" y1="3.41" transform="translate(13.707 6.7)" fill="none" stroke="#222" stroke-linecap="round" stroke-miterlimit="10" stroke-width="1.9"/>
    <line id="Line_7" data-name="Line 7" y2="2.69" transform="translate(23.076 26.898)" fill="none" stroke="#222" stroke-linecap="round" stroke-miterlimit="10" stroke-width="1.9"/>
    <path id="Path_21" data-name="Path 21" d="M33.212,54.739h-7.45a.574.574,0,0,1-.534-.791L26.492,52.5a.589.589,0,0,1,.539-.363h4.916a.579.579,0,0,1,.534.363l1.269,1.446a.579.579,0,0,1-.539.791Z" transform="translate(-6.514 -22.552)" fill="none" stroke="#222" stroke-linecap="round" stroke-miterlimit="10" stroke-width="1.9"/>
  </g>
</svg>
