<svg xmlns="http://www.w3.org/2000/svg" xmlns:xlink="http://www.w3.org/1999/xlink" width="28.534" height="28.918" viewBox="0 0 28.534 28.918">
  <defs>
    <clipPath id="clip-path">
      <rect id="Rectangle_27" data-name="Rectangle 27" width="28.534" height="28.918" transform="translate(-0.574 -3.322)" fill="#fff" stroke="#222" stroke-width="0.7"/>
    </clipPath>
  </defs>
  <g id="history" transform="translate(0.574 3.322)" clip-path="url(#clip-path)">
    <path id="Path_35" data-name="Path 35" d="M14.654,24.584A12.049,12.049,0,0,0,26.607,12.631,12.042,12.042,0,0,0,14.654.678,12.024,12.024,0,0,0,2.7,12.619H4.693a9.981,9.981,0,1,1,1.9,5.848,1.038,1.038,0,0,0-1.406-.34.972.972,0,0,0-.2,1.453A12.109,12.109,0,0,0,14.654,24.584ZM1.259,10.369c-.844,0-1.055.574-.6,1.231l2.625,3.727a.748.748,0,0,0,1.324,0l2.625-3.738c.445-.645.234-1.219-.6-1.219Z" fill="rgba(0,0,0,0.85)" stroke="#222" stroke-width="0.7"/>
    <path id="Path_36" data-name="Path 36" d="M14.394,5.635a1.1,1.1,0,0,0-1.1,1.1v6.644a1.29,1.29,0,0,0,.316.844l2.836,3.75a1.16,1.16,0,0,0,1.676.328,1.086,1.086,0,0,0,.152-1.605l-4.066-5.52,1.3,4.008V6.736A1.11,1.11,0,0,0,14.394,5.635Z" fill="rgba(0,0,0,0.85)" stroke="#222" stroke-width="0.7"/>
  </g>
</svg>
