<svg width="29" height="26" viewBox="0 0 29 26" fill="none" xmlns="http://www.w3.org/2000/svg">
<g clip-path="url(#clip0_2345_136105)">
<path d="M2.39062 16.002C2.03906 16.002 1.88672 15.8731 1.88672 15.4981V4.44727C1.88672 3.91993 2.21484 3.60352 2.73047 3.60352H25.207C25.7227 3.60352 26.0508 3.91993 26.0508 4.44727V15.4981C26.0508 15.8731 25.8867 16.002 25.5352 16.002H2.39062Z" fill="black" fill-opacity="0.2125"/>
<path d="M2.69531 21.1699H25.2305C26.918 21.1699 27.9375 20.1504 27.9375 18.4629V4.4121C27.9375 2.7246 26.918 1.7168 25.2305 1.7168H2.69531C1.01953 1.7168 0 2.7246 0 4.4121V18.4629C0 20.1504 1.01953 21.1699 2.69531 21.1699ZM2.39062 16.002C2.03906 16.002 1.88672 15.8731 1.88672 15.4981V4.44726C1.88672 3.91992 2.21484 3.60351 2.73047 3.60351H25.207C25.7227 3.60351 26.0508 3.91992 26.0508 4.44726V15.4981C26.0508 15.8731 25.8867 16.002 25.5352 16.002H2.39062ZM10.2656 23.959H17.6719V21.0176H10.2656V23.959ZM10.1953 25.3301H17.7422C18.2578 25.3301 18.6797 24.9082 18.6797 24.3809C18.6797 23.8535 18.2578 23.4317 17.7422 23.4317H10.1953C9.67969 23.4317 9.24609 23.8535 9.24609 24.3809C9.24609 24.9082 9.67969 25.3301 10.1953 25.3301Z" fill="black" fill-opacity="0.85"/>
</g>
<defs>
<clipPath id="clip0_2345_136105">
<rect width="28.2891" height="24.4336" fill="white" transform="translate(0 0.896484)"/>
</clipPath>
</defs>
</svg>
