<svg xmlns="http://www.w3.org/2000/svg" xmlns:xlink="http://www.w3.org/1999/xlink" width="25.723" height="21.199" viewBox="0 0 25.723 21.199">
  <defs>
    <clipPath id="clip-path">
      <rect id="Rectangle_19" data-name="Rectangle 19" width="25.723" height="21.199" transform="translate(0.563 0.326)" fill="#fff" stroke="#222" stroke-width="0.7"/>
    </clipPath>
  </defs>
  <g id="math" transform="translate(-0.563 -0.326)" clip-path="url(#clip-path)">
    <path id="Path_26" data-name="Path 26" d="M5,21.525c1.1,0,1.676-.773,1.992-1.781L12.328,2.576h12.48a1.029,1.029,0,0,0,1.125-1.055A1.024,1.024,0,0,0,24.809.49H12.3a1.828,1.828,0,0,0-2.051,1.477L5.133,18.783h-.2l-2.2-7.769c-.187-.644-.539-.949-1.09-.949A1.027,1.027,0,0,0,.563,11.084a2.364,2.364,0,0,0,.105.621l2.484,8.168C3.445,20.822,3.973,21.525,5,21.525Zm9.551-2.391c.434,0,.656-.152.984-.609L18.316,14.6h.047l2.754,3.926c.34.457.563.609.984.609a.956.956,0,0,0,1.019-.949,1.032,1.032,0,0,0-.234-.691l-3.223-4.383L22.91,8.705a1.136,1.136,0,0,0,.246-.691.933.933,0,0,0-.984-.914,1.053,1.053,0,0,0-.961.574l-2.66,3.949h-.059L15.75,7.662a1.062,1.062,0,0,0-.984-.562,1,1,0,0,0-1.031.961,1.076,1.076,0,0,0,.281.75L17.1,13.053l-3.27,4.512a.962.962,0,0,0-.223.668A.914.914,0,0,0,14.555,19.135Z" fill="rgba(0,0,0,0.85)" stroke="#222" stroke-width="0.7"/>
  </g>
</svg>
