<svg xmlns="http://www.w3.org/2000/svg" width="300" height="292.599" viewBox="0 0 300 292.599">
  <path id="Octicons-mark-github" d="M150,0a150.006,150.006,0,0,0-47.438,292.313c7.5,1.313,10.313-3.187,10.313-7.125,0-3.562-.187-15.375-.187-27.937C75,264.188,65.25,248.063,62.25,239.625c-1.687-4.312-9-17.625-15.375-21.187-5.25-2.812-12.75-9.75-.187-9.938,11.813-.187,20.25,10.875,23.063,15.375,13.5,22.688,35.063,16.313,43.688,12.375,1.312-9.75,5.25-16.313,9.562-20.063-33.375-3.75-68.25-16.687-68.25-74.062a58.377,58.377,0,0,1,15.375-40.313c-1.5-3.75-6.75-19.125,1.5-39.75,0,0,12.562-3.937,41.25,15.375a141.42,141.42,0,0,1,75,0c28.687-19.5,41.25-15.375,41.25-15.375,8.25,20.625,3,36,1.5,39.75,9.563,10.5,15.375,23.813,15.375,40.313,0,57.563-35.062,70.313-68.437,74.062,5.437,4.688,10.125,13.688,10.125,27.75,0,20.062-.188,36.187-.188,41.25,0,3.938,2.813,8.625,10.313,7.125A150.08,150.08,0,0,0,150,0Z" fill="#fff" fill-rule="evenodd"/>
</svg>
