<svg xmlns="http://www.w3.org/2000/svg" xmlns:xlink="http://www.w3.org/1999/xlink" width="19.976" height="25.863" viewBox="0 0 19.976 25.863">
  <defs>
    <clipPath id="clip-path">
      <rect id="Rectangle_21" data-name="Rectangle 21" width="19.976" height="25.863" transform="translate(0.184 0.334)" fill="#fff"/>
    </clipPath>
  </defs>
  <g id="pe" transform="translate(-0.184 -0.334)" clip-path="url(#clip-path)">
    <path id="Path_28" data-name="Path 28" d="M12.433,5.443A2.555,2.555,0,1,0,9.879,2.889,2.546,2.546,0,0,0,12.433,5.443Zm-4.008,10.2,4.488,2.519-2.894,2.484a1.117,1.117,0,0,0-.234,1.641,1.182,1.182,0,0,0,1.723-.012l4.043-3.445a1.238,1.238,0,0,0-.2-1.91l-4.394-2.883L11.824,11a.473.473,0,0,1,.879-.117l1.289,1.887a1.082,1.082,0,0,0,1.359.375l3.715-1.652a1.042,1.042,0,0,0,.621-1.465,1.058,1.058,0,0,0-1.512-.469l-2.941,1.3-2.027-2.8A4.524,4.524,0,0,0,8.683,6.17L4.57,6.463a1.241,1.241,0,0,0-1.2,1.148l-.551,4.172a1.028,1.028,0,0,0,.9,1.3A1.033,1.033,0,0,0,4.9,12.041l.5-3.41,1.652-.117a.523.523,0,0,1,.6.68l-.961,3.352C6.129,14.525,7.418,15.064,8.426,15.639ZM.586,25.764a1.221,1.221,0,0,0,1.7-.164l3.8-3.762a1.938,1.938,0,0,0,.586-.879l1.594-4.125-.387-.211a6.15,6.15,0,0,1-1.934-1.5L4.547,20.057.609,23.982A1.164,1.164,0,0,0,.586,25.764Z" fill="rgba(0,0,0,0.85)"/>
  </g>
</svg>
