<svg xmlns="http://www.w3.org/2000/svg" xmlns:xlink="http://www.w3.org/1999/xlink" width="20.859" height="26.379" viewBox="0 0 20.859 26.379">
  <defs>
    <clipPath id="clip-path">
      <rect id="Rectangle_22" data-name="Rectangle 22" width="20.859" height="26.379" transform="translate(0.602 0.648)" fill="#fff"/>
    </clipPath>
  </defs>
  <g id="pencil.and.ruler" transform="translate(-0.602 -0.648)" clip-path="url(#clip-path)">
    <path id="Path_29" data-name="Path 29" d="M.6,3.648H3.543V1.973c0-.844-.434-1.324-1.2-1.324H1.773C1.023.648.6,1.152.6,1.973Zm0,20.309,1.066,2.625a.383.383,0,0,0,.68.012l1.2-2.637V5.02H.6ZM12.426,26.84h5.813a2.737,2.737,0,0,0,2.871-2.871V3.707A2.75,2.75,0,0,0,18.238.812H12.426A2.731,2.731,0,0,0,9.566,3.7V23.957A2.731,2.731,0,0,0,12.426,26.84Zm.316-1.711a1.363,1.363,0,0,1-1.465-1.43V3.965a1.363,1.363,0,0,1,1.465-1.43h5.191a1.36,1.36,0,0,1,1.453,1.43V23.688a1.369,1.369,0,0,1-1.453,1.441ZM20,4.891V4h-5.6a.435.435,0,0,0-.434.445.441.441,0,0,0,.422.445Zm0,1.863V5.887H16.258a.413.413,0,0,0-.422.445.4.4,0,0,0,.41.422Zm0,1.887V7.773H16.258a.413.413,0,0,0-.422.445.4.4,0,0,0,.41.422Zm0,1.875V9.637H16.258a.44.44,0,0,0-.012.879Zm0,1.875v-.879H16.258a.422.422,0,0,0-.422.457.41.41,0,0,0,.41.422Zm0,1.863V13.4h-5.6a.425.425,0,0,0-.434.434.413.413,0,0,0,.422.422Zm0,1.9v-.879H16.258a.409.409,0,0,0-.422.434.416.416,0,0,0,.41.445Zm0,1.875V17.16H16.258a.4.4,0,0,0-.422.434.413.413,0,0,0,.41.434Zm0,1.863v-.867H16.258a.434.434,0,0,0-.012.867Zm0,1.875V20.9H16.258a.4.4,0,0,0-.422.422.41.41,0,0,0,.41.445Zm0,1.875v-.879h-5.6a.435.435,0,0,0-.434.445.43.43,0,0,0,.422.434Z" fill="rgba(0,0,0,0.85)"/>
  </g>
</svg>
