<svg xmlns="http://www.w3.org/2000/svg" width="24.435" height="24.434" viewBox="0 0 24.435 24.434">
  <g id="physics" transform="translate(0 -0.011)">
    <g id="Group_25" data-name="Group 25" transform="translate(0 0.011)">
      <g id="Group_24" data-name="Group 24" transform="translate(0 0)">
        <path id="Path_30" data-name="Path 30" d="M208.087,205.17a2.415,2.415,0,1,0,2.415,2.415A2.415,2.415,0,0,0,208.087,205.17Z" transform="translate(-195.857 -195.379)" fill="#222"/>
        <path id="Path_31" data-name="Path 31" d="M12.232,2.176A18.565,18.565,0,0,0,8.872.659a1.117,1.117,0,0,0-1.427.771A1.137,1.137,0,0,0,8.2,2.789a14.984,14.984,0,0,1,1.873.775,29.2,29.2,0,0,0-6.542,6.543c-1.253-2.582-1.911-5.552-.46-7A1.117,1.117,0,1,0,1.494,1.524C-1.187,4.2.183,8.8,2.147,12.26-2.109,19.727.53,24.468,5.454,24.468c5.008,0,11.513-4.548,15.473-10.052.189.389.363.783.518,1.178,2,5.12-.011,7.9-5.284,6.1-.4-.137-.559-.251-.765-.1q-.712.529-1.436,1a.372.372,0,0,0,.053.652c9.155,4.082,13.2-2.534,8.324-11.026C27.818,2.557,21.9-3.331,12.232,2.176Zm-.014,17.547A26.547,26.547,0,0,1,5.778,13.7a.372.372,0,0,0-.616.035q-.435.745-.775,1.482a.37.37,0,0,0,.049.387,32.1,32.1,0,0,0,5.6,5.346C-2.281,26.864,1.157,12.033,12.225,4.8a26.583,26.583,0,0,1,7.5,7.512A25.066,25.066,0,0,1,12.218,19.723ZM20.952,10.1a30.352,30.352,0,0,0-6.568-6.536C20.71.473,24.271,3.037,20.952,10.1Z" transform="translate(0 -0.055)" fill="#222"/>
        <path id="Path_32" data-name="Path 32" d="M82.55,2.26c.1,0,.291-.025.674-.012A1.117,1.117,0,1,0,83.3.017a7.865,7.865,0,0,0-.831.013A1.117,1.117,0,0,0,82.55,2.26Z" transform="translate(-77.548 -0.011)" fill="#222"/>
      </g>
    </g>
  </g>
</svg>
