<svg xmlns="http://www.w3.org/2000/svg" xmlns:xlink="http://www.w3.org/1999/xlink" width="32.215" height="33.949" viewBox="0 0 32.215 33.949">
  <defs>
    <clipPath id="clip-path">
      <rect id="Rectangle_23" data-name="Rectangle 23" width="32.215" height="33.949" transform="translate(0.137 0.627)" fill="#fff"/>
    </clipPath>
  </defs>
  <g id="self_study" transform="translate(-0.137 -0.627)" clip-path="url(#clip-path)">
    <path id="Path_33" data-name="Path 33" d="M16.063,21.627a7.5,7.5,0,0,0,3.246-.809l11.543-5.273a1.875,1.875,0,0,0,0-3.457L19.309,6.815a7.5,7.5,0,0,0-3.246-.809,7.575,7.575,0,0,0-3.246.809L1.285,12.088a1.875,1.875,0,0,0,0,3.457l11.531,5.273A7.575,7.575,0,0,0,16.063,21.627Zm0-1.852a5.918,5.918,0,0,1-2.531-.656L2.738,14.209a.405.405,0,0,1,0-.785l10.793-4.91a5.918,5.918,0,0,1,2.531-.656,5.964,5.964,0,0,1,2.543.656L29.4,13.424a.405.405,0,0,1,0,.785l-10.793,4.91A5.964,5.964,0,0,1,16.063,19.776ZM4.707,22.623c0,3.5,4.453,6.469,11.355,6.469S27.43,26.127,27.43,22.623V16.436H25.543v6.188c0,2.449-3.7,4.7-9.48,4.7s-9.469-2.25-9.469-4.7V16.436H4.707Zm11.4-7.477c1.266,0,2.484-.574,2.484-1.336,0-.738-1.219-1.3-2.484-1.3s-2.5.563-2.5,1.3C13.613,14.573,14.856,15.147,16.109,15.147ZM8.984,18.241l6.949-3.68-.645-1.207L7.461,17.432Zm-1.523,11.5H8.984v-11.5l-1.523-.75Zm-.926.234v3.082a1.427,1.427,0,0,0,1.523,1.523h.316A1.427,1.427,0,0,0,9.9,33.053V29.971a1.427,1.427,0,0,0-1.523-1.524H8.059A1.427,1.427,0,0,0,6.535,29.971Z" fill="rgba(0,0,0,0.85)"/>
  </g>
</svg>
